<svg width="275" height="70" viewBox="0 0 275 70" fill="none" xmlns="http://www.w3.org/2000/svg">
<g filter="url(#filter0_d)">
<rect x="5" y="1" width="265" height="60" rx="30" fill="url(#paint0_linear)"/>
<path d="M67.185 22.4545H55.2247V37H58.2645V24.9545H64.1452V37H67.185V22.4545ZM70.0561 41.0909H73.0816V35.2528H73.174C73.593 36.1619 74.5092 37.1776 76.2706 37.1776C78.7563 37.1776 80.6953 35.2102 80.6953 31.5597C80.6953 27.8097 78.6711 25.9489 76.2777 25.9489C74.4524 25.9489 73.5788 27.0355 73.174 27.9233H73.039V26.0909H70.0561V41.0909ZM73.0177 31.5455C73.0177 29.5994 73.8416 28.3565 75.3117 28.3565C76.8103 28.3565 77.6058 29.6562 77.6058 31.5455C77.6058 33.4489 76.7961 34.7699 75.3117 34.7699C73.8558 34.7699 73.0177 33.4915 73.0177 31.5455ZM85.6029 33.0085V26.0909H82.7123V37H85.7166L89.6299 30.0611V37H92.5135V26.0909H89.5305L85.6029 33.0085ZM99.8679 37.2131C102.773 37.2131 104.598 35.5085 104.74 33.0014H101.885C101.707 34.1662 100.94 34.8196 99.9034 34.8196C98.49 34.8196 97.5738 33.6335 97.5738 31.5455C97.5738 29.4858 98.4971 28.3068 99.9034 28.3068C101.011 28.3068 101.722 29.0384 101.885 30.125H104.74C104.612 27.6037 102.702 25.9489 99.8537 25.9489C96.544 25.9489 94.4985 28.2429 94.4985 31.5881C94.4985 34.9048 96.5085 37.2131 99.8679 37.2131ZM111.606 37.2131C114.916 37.2131 116.975 34.9474 116.975 31.5881C116.975 28.2074 114.916 25.9489 111.606 25.9489C108.296 25.9489 106.237 28.2074 106.237 31.5881C106.237 34.9474 108.296 37.2131 111.606 37.2131ZM111.62 34.8693C110.093 34.8693 109.312 33.4702 109.312 31.5668C109.312 29.6634 110.093 28.2571 111.62 28.2571C113.119 28.2571 113.9 29.6634 113.9 31.5668C113.9 33.4702 113.119 34.8693 111.62 34.8693ZM123.914 37.2131C126.613 37.2131 128.431 35.8991 128.858 33.875L126.059 33.6903C125.754 34.5213 124.973 34.9545 123.964 34.9545C122.451 34.9545 121.492 33.9531 121.492 32.3267V32.3196H128.921V31.4886C128.921 27.7812 126.677 25.9489 123.794 25.9489C120.583 25.9489 118.502 28.2287 118.502 31.5952C118.502 35.054 120.555 37.2131 123.914 37.2131ZM121.492 30.4446C121.556 29.2017 122.501 28.2074 123.843 28.2074C125.157 28.2074 126.066 29.1449 126.073 30.4446H121.492ZM130.044 40.196H132.998V37H139.667V40.196H142.551V34.5994H140.86V26.0909H132.494L132.21 29.6562C132.039 31.8011 131.833 33.9957 130.882 34.5994H130.044V40.196ZM133.893 34.5994C134.539 33.5838 134.788 31.9858 134.951 29.6562L135.065 28.4205H138.005V34.5994H133.893ZM147.205 33.0085V26.0909H144.314V37H147.318L151.231 30.0611V37H154.115V26.0909H151.132L147.205 33.0085ZM159.431 26.0909H156.54V37H159.431V32.7173H163.16V37H166.029V26.0909H163.16V30.3381H159.431V26.0909ZM171.267 33.0085V26.0909H168.376V37H171.381L175.294 30.0611V37H178.178V26.0909H175.195L171.267 33.0085ZM179.527 28.4702H183.014V37H185.898V28.4702H189.413V26.0909H179.527V28.4702ZM194.138 29.4432V26.0909H191.247V37H196.404C199.294 37 200.992 35.4872 200.999 33.2358C200.992 30.9418 199.294 29.4432 196.404 29.4432H194.138ZM194.138 31.8224H196.404C197.419 31.8224 198.137 32.419 198.151 33.2571C198.137 34.0526 197.419 34.6207 196.404 34.6207H194.138V31.8224ZM207.934 37.2131C210.839 37.2131 212.664 35.5085 212.806 33.0014H209.951C209.774 34.1662 209.007 34.8196 207.97 34.8196C206.556 34.8196 205.64 33.6335 205.64 31.5455C205.64 29.4858 206.564 28.3068 207.97 28.3068C209.078 28.3068 209.788 29.0384 209.951 30.125H212.806C212.679 27.6037 210.768 25.9489 207.92 25.9489C204.61 25.9489 202.565 28.2429 202.565 31.5881C202.565 34.9048 204.575 37.2131 207.934 37.2131ZM221.136 37H223.955V26.0909H219.09C216.263 26.0909 214.502 27.5398 214.516 29.6705C214.509 30.9986 215.255 32.0355 216.555 32.6037L214.204 37H217.102L219.197 33.0653H221.136V37ZM221.136 31.0199H219.062C217.961 31.0199 217.386 30.4659 217.4 29.7557C217.386 29.0597 217.975 28.4631 219.09 28.4631H221.136V31.0199Z" fill="white"/>
</g>
<defs>
<filter id="filter0_d" x="0" y="0" width="275" height="70" filterUnits="userSpaceOnUse" color-interpolation-filters="sRGB">
<feFlood flood-opacity="0" result="BackgroundImageFix"/>
<feColorMatrix in="SourceAlpha" type="matrix" values="0 0 0 0 0 0 0 0 0 0 0 0 0 0 0 0 0 0 127 0"/>
<feOffset dy="4"/>
<feGaussianBlur stdDeviation="2.5"/>
<feColorMatrix type="matrix" values="0 0 0 0 0 0 0 0 0 0 0 0 0 0 0 0 0 0 0.05 0"/>
<feBlend mode="normal" in2="BackgroundImageFix" result="effect1_dropShadow"/>
<feBlend mode="normal" in="SourceGraphic" in2="effect1_dropShadow" result="shape"/>
</filter>
<linearGradient id="paint0_linear" x1="6.40923" y1="2.30062" x2="13.4222" y2="70.0807" gradientUnits="userSpaceOnUse">
<stop stop-color="#FFABEC"/>
<stop offset="0.526042" stop-color="#DBADFF"/>
<stop offset="1" stop-color="#97C3FF"/>
</linearGradient>
</defs>
</svg>
