<svg width="171" height="71" viewBox="0 0 171 71" fill="none" xmlns="http://www.w3.org/2000/svg">
<path d="M18.1524 55.3477C18.1424 59.9935 18.1624 60.9896 18.1524 65.6355H22.6966V65.8539H13.3979V65.6355H17.8121C17.8121 60.9068 17.792 60.1968 17.792 55.3477" fill="#101010"/>
<path d="M152.188 12.1685V18.1158C152.106 21.2375 149.553 23.747 146.421 23.747V23.4307C149.38 23.4307 151.791 21.064 151.872 18.1158H146.258V12.1685H152.188Z" fill="#101010"/>
<path d="M62.1508 65.6039H64.1037V65.8998H54.6544V65.6039H56.6073V31.8273V31.409C56.5463 29.0321 55.4173 26.849 53.5152 25.4208C52.2234 24.4415 50.6774 23.911 49.0499 23.8702C49.0499 23.8702 48.9279 23.8702 48.877 23.8702C46.0697 23.8702 43.3946 24.7578 41.1467 26.4308V65.6141H43.0997V65.91H33.6504V65.6141H35.6033V2.77387H33.6504V2.47803H41.1467V26.0635C43.4048 24.4415 46.0697 23.5744 48.877 23.5744C48.9381 23.5744 49.0601 23.5744 49.0601 23.5744C51.8878 23.6152 54.5832 24.5333 56.8413 26.237C58.4483 27.4509 59.791 29.0423 60.7064 30.8378C61.6422 32.674 62.1304 34.6531 62.1508 36.7341V36.8872V65.6039Z" fill="#101010"/>
<path d="M3.95985 48.9981C3.93951 48.9777 3.91917 48.9471 3.88865 48.9063C1.95608 46.1111 1.40682 43.7444 1.21357 42.7345C1.09151 42.0816 0.979622 41.4695 0.999965 40.6126C1.01014 40.3066 1.05082 39.0212 1.73231 37.2462C2.16968 36.1036 2.67825 35.2773 3.31905 34.298C4.16328 33.0126 5.36351 31.2886 6.98077 29.2993C7.02145 29.3503 7.06214 29.3911 7.113 29.4421C5.45505 31.5436 4.22431 33.3697 3.34957 34.7366C2.62739 35.8588 2.21036 36.6239 1.82385 37.7358C1.40682 38.9294 1.32545 39.8067 1.30511 40.174C1.29494 40.327 1.2746 40.7248 1.30511 41.2247C1.3458 42.0714 1.49837 42.7753 1.64077 43.2752C1.64077 43.2752 1.77299 43.8158 2.04762 44.6115C3.25802 48.182 5.56694 51.1506 8.73025 53.2113C8.83197 53.2725 8.93368 53.3439 9.02523 53.4051C9.05574 53.4255 9.08626 53.4357 9.11677 53.4561C9.19814 53.5071 9.27951 53.5581 9.36088 53.5989C9.38123 53.6091 9.40157 53.6295 9.43208 53.6397C9.5338 53.7009 9.63551 53.7622 9.73723 53.8132C9.75757 53.8234 9.77791 53.8336 9.80843 53.854C9.89997 53.905 9.98134 53.9458 10.0729 53.9968C10.0932 54.007 10.1136 54.0172 10.1339 54.0274C13.3989 55.731 17.1319 56.3125 20.7936 55.6392L21.0784 55.5882C21.2106 55.5576 21.3327 55.5372 21.4649 55.5066L21.5971 55.476C21.648 55.4658 21.6988 55.4556 21.7497 55.4352C25.1063 54.5987 28.0051 52.5278 29.8868 49.6204C31.8702 46.56 32.5517 42.9079 31.799 39.3272C31.0463 35.7568 28.9409 32.6862 25.8894 30.6969C25.6758 30.5541 25.4521 30.4215 25.2283 30.2889L24.4553 29.8706C20.1629 27.5753 12.7073 23.5662 12.4733 23.4437C9.47277 21.8421 7.76397 18.5267 8.21151 15.1807C8.21151 15.1807 8.22168 15.0684 8.23186 15.0582C8.54717 12.6201 9.41174 10.3146 10.7645 8.21313L11.0188 8.36615C10.2051 9.63112 9.89997 12.1815 10.8764 14.6298C11.6189 16.466 13.4295 17.6494 14.7212 18.3737L27.0286 24.9842C27.5779 25.3004 32.4093 28.2486 34.1588 34.808C35.4099 39.4599 34.6267 44.4483 32.0025 48.4881C29.6325 52.1401 26.0115 54.7109 21.7904 55.731C21.7395 55.7412 21.6887 55.7616 21.6276 55.7718L21.5056 55.8024C21.4344 55.8228 21.3733 55.833 21.3021 55.8432C21.2411 55.8534 21.0987 55.884 21.0987 55.884L20.8139 55.935C17.3048 56.5777 13.7346 56.0881 10.5509 54.5783C9.09643 53.8846 6.24843 52.2524 3.95985 48.9981Z" fill="#101010"/>
<path d="M41.1568 65.7979V26.1555H40.8618V65.8081H41.1568V65.7979Z" fill="#101010"/>
<path d="M127.695 49.4963V26.6045H127.4V49.4861H127.695V49.4963Z" fill="white"/>
<path d="M35.9082 65.7979V26.1555H35.6133V65.8081H35.9082V65.7979Z" fill="#101010"/>
<path d="M27.4049 15.4759C27.4151 14.517 27.3134 13.0786 26.7641 11.4362C26.4285 10.4364 25.7978 8.55939 24.2518 7.13121C24.0178 6.91698 23.4076 6.39671 22.5125 5.94785C20.8342 5.11134 19.3186 5.09094 18.3218 5.09094C17.142 5.09094 15.1382 5.09094 13.1649 6.3457C12.5953 6.70275 11.7104 7.27402 11.0594 8.38597C10.0423 10.0794 10.2864 11.9054 10.378 12.6501C10.4898 13.507 10.6708 14.1782 10.8539 14.627C9.99945 14.5658 9.1879 14.517 8.3335 14.4558C8.58778 13.1194 8.93361 12.0483 9.22858 11.2832C9.67612 10.0896 10.022 9.16127 10.8153 8.15134C11.1917 7.67188 11.9444 6.81496 13.1446 6.10087C15.1687 4.88691 17.142 4.87671 18.3117 4.87671C19.3695 4.87671 20.885 4.88691 22.5532 5.70302C22.9397 5.89684 23.672 6.2947 24.4247 6.98839C25.7673 8.21255 26.3268 9.55913 26.7438 10.5589C27.4965 12.4053 27.6999 14.1293 27.6999 15.4657C27.6084 15.4657 27.5066 15.4657 27.4049 15.4759Z" fill="#101010"/>
<path d="M41.1465 26.4321C40.8414 26.677 39.8649 27.4115 38.4104 27.4727C36.9559 27.5339 35.9286 26.881 35.6133 26.6566C35.6133 26.5137 35.6133 26.3811 35.6133 26.2383C35.8777 26.4525 36.8949 27.2176 38.4003 27.1768C39.926 27.136 40.9126 26.2791 41.1567 26.0547C41.1465 26.1873 41.1465 26.3097 41.1465 26.4321Z" fill="#101010"/>
<path fill-rule="evenodd" clip-rule="evenodd" d="M146.409 28.8429C149.541 25.4945 153.719 23.1282 158.24 23.3428C160.585 23.4542 162.633 24.3263 164.073 25.9631C165.484 27.5673 166.062 29.6217 166.062 31.664C166.062 35.6923 163.863 40.2096 160.011 43.7983C156.133 47.4116 151.424 49.4697 146.516 49.5213C146.074 49.526 145.632 49.5143 145.191 49.4863C145.37 51.2657 145.761 52.9475 146.357 54.4313C147.644 57.639 149.76 59.691 152.605 60.2742C154.568 60.6741 156.727 60.0371 158.966 58.2566C161.212 56.4704 163.3 53.6986 164.881 50.4567L169.907 52.9219C168.06 56.7086 165.5 60.2208 162.442 62.653C159.377 65.0902 155.576 66.6058 151.488 65.7721L151.485 65.7715C146.315 64.7121 142.949 60.9647 141.167 56.5268C140.14 53.9675 139.598 51.1043 139.501 48.1846C137.059 47.202 134.717 45.6789 132.567 43.6179L132.544 43.596L132.522 43.5736C131.979 43.0293 129.733 41.0007 127.516 39.0177C126.431 38.0467 125.383 37.1139 124.607 36.4241C124.218 36.0792 123.898 35.7956 123.676 35.5988C123.564 35.5002 123.479 35.4246 123.421 35.3744C123.392 35.3488 123.374 35.3324 123.363 35.3235C123.357 35.3182 123.36 35.3203 123.366 35.3259C123.368 35.3271 123.382 35.3395 123.402 35.3557C123.408 35.361 123.438 35.3855 123.477 35.4156C123.501 35.4337 123.571 35.4841 123.617 35.5155C123.73 35.5876 124.489 35.9043 125.172 35.9894V30.3786C125.856 30.4637 126.615 30.7804 126.728 30.8527C126.774 30.8842 126.844 30.9347 126.868 30.9531C126.908 30.9832 126.938 31.0081 126.946 31.0146L126.946 31.0149C126.968 31.0329 126.986 31.0479 126.991 31.0525L126.991 31.0525C127.006 31.0651 127.02 31.0774 127.03 31.0857C127.051 31.1041 127.078 31.1281 127.109 31.1553C127.172 31.2107 127.263 31.2904 127.376 31.3903C127.602 31.5905 127.925 31.8769 128.315 32.2236C129.096 32.917 130.149 33.8543 131.24 34.8305C133.351 36.7191 135.732 38.8646 136.452 39.581C137.579 40.6578 138.74 41.5167 139.916 42.1764C139.932 42.0821 139.949 41.9878 139.966 41.8937C140.879 36.8616 143.248 32.2216 146.409 28.8429ZM145.314 43.8697C145.697 43.9014 146.078 43.9149 146.457 43.9109C149.793 43.8758 153.206 42.4807 156.204 39.6876C159.228 36.8698 160.467 33.7514 160.467 31.664C160.467 30.6485 160.186 30.025 159.878 29.675C159.598 29.3576 159.068 28.9992 157.975 28.9473C155.62 28.8355 152.922 30.0805 150.488 32.682C148.083 35.2533 146.195 38.9019 145.47 42.8979C145.411 43.2214 145.359 43.5455 145.314 43.8697Z" fill="#101010"/>
<path d="M121.237 49.9357C122.111 54.159 120.81 58.5762 117.758 61.7386C117.697 61.7998 117.575 61.9325 117.565 61.9325C115.297 64.187 112.296 65.554 109.112 65.7784C108.797 65.7988 108.492 65.809 108.187 65.809C105.349 65.809 102.582 64.9113 100.304 63.228C100.304 63.228 99.9988 63.0036 99.8767 62.8914C99.3987 62.5854 98.8393 62.4221 98.2798 62.4221C96.5914 62.4221 95.2081 63.8707 95.2081 65.6662H94.9131V52.5778H95.2081C95.2081 56.0361 96.5609 59.2903 99.0122 61.7284C99.3478 62.0651 99.6937 62.3813 100.06 62.667L100.487 62.9934C102.959 64.8194 106.02 65.707 109.102 65.4927C112.225 65.2785 115.154 63.9421 117.372 61.7284L117.555 61.5346C119.182 59.8106 120.067 57.5561 120.037 55.1792C120.006 52.8023 119.06 50.5682 117.372 48.8849C116.761 48.2729 116.059 47.7526 115.317 47.3445C115.042 47.1915 114.758 47.0589 114.473 46.9365H114.463L98.2086 39.1018C96.6931 38.3367 95.6556 37.0718 95.1877 35.4396C94.7707 34.0012 94.8622 32.3588 95.4115 30.9204C95.9404 29.4616 96.6829 28.2986 97.8018 27.1561C97.8323 27.1255 97.8628 27.0949 97.8933 27.0541L98.1069 27.2683C98.0764 27.2989 98.0459 27.3295 98.0154 27.3601C97.2322 28.166 96.927 28.9719 97.0796 29.8288C97.517 32.3077 101.779 34.6745 106.305 36.8677L111.706 39.4691C113.69 40.4688 116.151 41.7848 117.575 43.213C118.023 43.6618 118.44 44.1311 118.816 44.6208C120.016 46.2122 120.84 48.0076 121.237 49.9357ZM127.39 57.5663C127.39 57.6377 127.39 57.7091 127.39 57.7805C127.39 57.8519 127.39 57.9131 127.39 57.9845C127.451 60.3615 128.581 62.5445 130.483 63.9727C131.774 64.9521 133.32 65.4825 134.948 65.5233C134.948 65.5233 135.07 65.5233 135.121 65.5233C137.959 65.5233 140.644 64.6256 142.912 62.922L143.085 63.1566C140.776 64.9011 138.02 65.8192 135.121 65.8192C135.06 65.8192 134.938 65.8192 134.938 65.8192C132.11 65.7784 129.415 64.8603 127.157 63.1566C125.539 61.9427 124.207 60.3513 123.291 58.5558C122.356 56.7196 121.867 54.7405 121.847 52.6594V52.5064V23.7284H119.904V23.4326H121.847V16.8017V3.85618C119.335 2.74424 116.578 2.39739 113.852 2.87685C111.035 3.36652 108.482 4.70289 106.447 6.73296C103.416 9.77297 101.758 14.2616 102.114 18.4645C102.399 21.7698 103.925 24.5649 106.417 26.3298C106.915 26.646 107.495 26.8194 108.095 26.8194C109.946 26.8194 111.34 25.4218 111.34 23.5754H111.635V36.4903H111.34C111.248 33.1749 109.896 30.0532 107.546 27.7069C107.139 27.2989 106.702 26.9214 106.254 26.5746C103.681 24.7587 102.104 21.8922 101.819 18.4951C101.453 14.2106 103.142 9.63015 106.234 6.52894C108.309 4.45806 110.923 3.09108 113.791 2.59122C116.527 2.11175 119.304 2.43819 121.837 3.53994L122.05 3.63175C123.607 4.33565 125.01 5.31498 126.231 6.52894C126.628 6.92679 127.39 7.84491 127.39 7.84491V17.1077V18.1687C127.38 18.5563 127.329 18.9338 127.238 19.2908C127.197 19.4642 127.146 19.6377 127.085 19.8009C126.363 21.8718 124.42 23.3714 122.132 23.4326H143.075V23.7284H127.38L127.39 57.5663Z" fill="#101010"/>
<path d="M74.6618 65.9918C73.1056 65.9918 71.6104 65.6654 70.2576 65.0023C67.4096 63.6149 65.4973 60.9116 64.9989 57.6063C64.409 53.6278 66.1076 49.4758 69.5456 46.5072C73.0445 43.4876 77.4996 42.4267 81.4563 43.6509C83.5211 44.2935 85.0163 44.9362 86.5929 45.936C87.8541 40.468 87.5286 35.2245 85.6978 32.0111C84.6603 30.1953 83.3075 29.2772 81.5479 29.216C79.9204 29.1547 78.0387 29.8076 76.096 31.1032C73.9295 32.5416 71.8545 34.6941 70.0847 37.3056L70.0338 37.3872C66.7281 41.937 64.4599 46.8541 61.856 52.8117L56.7397 50.5572C59.3843 44.518 61.8763 39.1113 65.4973 34.1228C67.6639 30.9298 70.2576 28.2672 73.014 26.4412C75.9434 24.4927 78.9745 23.5134 81.7818 23.6256C85.4638 23.7684 88.5865 25.7679 90.5699 29.2466C93.2958 34.031 93.7129 41.3148 91.6786 48.7209C91.587 49.0576 91.4853 49.4044 91.3836 49.7309C92.4923 50.7102 93.7942 51.7813 94.6995 52.6281C94.9843 52.8933 94.6283 65.6756 94.6283 65.6756H94.3232C94.1197 62.3091 93.7841 61.0442 92.594 59.0447C92.2889 58.5346 91.882 57.9226 91.4853 57.5043C90.9869 56.984 90.1427 56.1271 89.1662 55.26C88.739 56.0965 88.2813 56.9024 87.8033 57.6573C85.9521 60.5647 83.7957 62.7274 81.4055 64.0842C79.1576 65.3491 76.8487 65.9918 74.6618 65.9918ZM78.1709 48.7719C76.4927 48.7719 74.6923 49.4758 73.1971 50.7612C71.2544 52.4342 70.2372 54.7397 70.5424 56.7698C70.7661 58.249 71.5392 59.3814 72.7191 59.9526C74.2855 60.7177 76.452 60.4423 78.649 59.1875C80.9681 57.8716 83.1651 55.0662 84.762 51.4753C83.0837 50.2409 81.8835 49.6595 79.8085 49.0168C79.2796 48.8536 78.7304 48.7719 78.1709 48.7719Z" fill="#101010"/>
<path d="M62.4556 58.1983V32.1848H62.1606V58.1983H62.4556Z" fill="white"/>
<path d="M94.9024 70.5406V44.5271H94.6074V70.5406H94.9024Z" fill="white"/>
<path d="M127.685 27.8162H127.39V43.7303H127.685V27.8162Z" fill="white"/>
<path d="M22.2221 47.243C28.8523 46.3756 31.4068 44.0914 31.7446 41.8324C31.7446 47.5928 29.0418 51.3199 25.3254 53.6919C21.6091 56.0638 14.852 56.7415 8.77068 53.0142C3.90561 50.0323 1.90102 44.0916 1.67578 41.8324C2.01363 41.1547 3.97318 40.0696 7.75712 41.1539C12.4871 42.5093 13.9964 48.319 22.2221 47.243Z" fill="#101010"/>
</svg>
