<svg width="1064" height="715" viewBox="0 0 1064 715" fill="none" xmlns="http://www.w3.org/2000/svg">
<path d="M439.656 500.715C439.976 446.455 440.99 150.692 439.276 123.505C437.424 94.0844 448.703 74.836 465.195 82.2674C481.706 89.7161 493.861 120.717 486.466 136.926C481.1 148.71 470.199 150.351 463.495 143.545C455.118 135.022 459.248 117.583 470.941 113.623C476.056 111.881 479.244 111.471 485.268 111.761C486.225 111.806 496.597 112.764 499.717 113.257C518.144 115.727 531.419 104.961 534.716 88.1975C538.013 71.415 528.554 58.3859 518.056 65.2545C507.559 72.1418 505.483 90.5971 512.707 105.634C519.93 120.671 534.91 132.154 548.486 125.968C562.063 119.801 561.119 100.958 557.221 85.3333C552.491 66.3628 549.254 42.5373 555.299 28.424C561.344 14.3108 579.816 7.25869 597.311 6.03531" stroke="url(#paint0_linear)" stroke-width="10.2615" stroke-miterlimit="10"/>
<path d="M655.656 500.715C655.976 446.455 656.99 150.692 655.276 123.505C653.424 94.0844 664.703 74.836 681.195 82.2674C697.706 89.7161 709.861 120.717 702.466 136.926C697.1 148.71 686.199 150.351 679.495 143.545C671.118 135.022 675.248 117.583 686.941 113.623C692.056 111.881 695.244 111.471 701.268 111.761C702.225 111.806 712.597 112.764 715.717 113.257C734.144 115.727 747.419 104.961 750.716 88.1975C754.013 71.415 744.554 58.3859 734.056 65.2545C723.559 72.1418 721.483 90.5971 728.707 105.634C735.93 120.671 750.91 132.154 764.486 125.968C778.063 119.801 777.119 100.958 773.221 85.3333C768.491 66.3628 765.254 42.5373 771.299 28.424C777.344 14.3108 795.816 7.25869 813.311 6.03531" stroke="url(#paint1_linear)" stroke-width="10.2615" stroke-miterlimit="10"/>
<path d="M872.656 500.715C872.976 446.455 873.99 150.692 872.276 123.505C870.424 94.0844 881.703 74.836 898.195 82.2674C914.706 89.7161 926.861 120.717 919.466 136.926C914.1 148.71 903.199 150.351 896.495 143.545C888.118 135.022 892.248 117.583 903.941 113.623C909.056 111.881 912.244 111.471 918.268 111.761C919.225 111.806 929.597 112.764 932.717 113.257C951.144 115.727 964.419 104.961 967.716 88.1975C971.013 71.415 961.554 58.3859 951.056 65.2545C940.559 72.1418 938.483 90.5971 945.707 105.634C952.93 120.671 967.91 132.154 981.486 125.968C995.063 119.801 994.119 100.958 990.221 85.3333C985.491 66.3628 982.254 42.5373 988.299 28.424C994.344 14.3108 1012.82 7.25869 1030.31 6.03531" stroke="url(#paint2_linear)" stroke-width="10.2615" stroke-miterlimit="10"/>
<path d="M222.882 502.346C223.202 448.086 224.215 152.323 222.501 125.136C220.65 95.7153 231.928 76.4669 248.42 83.8983C264.932 91.347 277.087 122.348 269.692 138.557C264.325 150.341 253.424 151.982 246.72 145.175C238.344 136.653 242.473 119.214 254.166 115.254C259.281 113.512 262.47 113.102 268.493 113.392C269.45 113.437 279.823 114.395 282.943 114.887C301.37 117.358 314.644 106.592 317.942 89.8284C321.238 73.0459 311.78 60.0168 301.282 66.8854C290.785 73.7727 288.709 92.2279 295.932 107.265C303.156 122.302 318.135 133.785 331.711 127.599C345.288 121.432 344.345 102.589 340.447 86.9642C335.716 67.9936 332.479 44.1681 338.525 30.0549C344.57 15.9417 363.042 8.88955 380.537 7.66617" stroke="url(#paint3_linear)" stroke-width="10.2615" stroke-miterlimit="10"/>
<path d="M6.56796 714C6.88831 659.739 7.90198 150.656 6.18796 123.47C4.33637 94.0489 15.6148 74.8005 32.1067 82.2319C48.6185 89.6806 60.7736 120.682 53.3785 136.89C48.0119 148.674 37.1107 150.316 30.4067 143.509C22.0304 134.987 26.1599 117.547 37.8528 113.588C42.9678 111.846 46.1561 111.436 52.1799 111.725C53.1369 111.771 63.5092 112.729 66.6296 113.221C85.0564 115.692 98.3308 104.926 101.628 88.162C104.925 71.3794 95.4665 58.3504 84.9683 65.219C74.4713 72.1063 72.3953 90.5615 79.6187 105.598C86.8422 120.635 101.822 132.119 115.398 125.933C128.975 119.765 128.032 100.923 124.134 85.2978C119.403 66.3272 116.166 42.5017 122.211 28.3885C128.257 14.2753 146.728 7.22313 164.223 5.99976" stroke="url(#paint4_linear)" stroke-width="10.2615" stroke-miterlimit="10"/>
<defs>
<linearGradient id="paint0_linear" x1="407.747" y1="29.7752" x2="696.413" y2="247.437" gradientUnits="userSpaceOnUse">
<stop stop-color="#FFABEC"/>
<stop offset="0.526042" stop-color="#DBADFF"/>
<stop offset="1" stop-color="#97C3FF"/>
</linearGradient>
<linearGradient id="paint1_linear" x1="636.574" y1="167.512" x2="849.206" y2="192.416" gradientUnits="userSpaceOnUse">
<stop stop-color="#00F1D6"/>
<stop offset="0.479167" stop-color="#51D0E1"/>
<stop offset="1" stop-color="#009DF4"/>
</linearGradient>
<linearGradient id="paint2_linear" x1="853.574" y1="167.512" x2="1066.21" y2="192.416" gradientUnits="userSpaceOnUse">
<stop stop-color="#E28CCF"/>
<stop offset="0.489583" stop-color="#FFADAD"/>
<stop offset="1" stop-color="#FFD250"/>
</linearGradient>
<linearGradient id="paint3_linear" x1="203.8" y1="169.143" x2="416.432" y2="194.047" gradientUnits="userSpaceOnUse">
<stop stop-color="#FFBD5B"/>
<stop offset="0.5" stop-color="#FF9047"/>
<stop offset="1" stop-color="#EB4843"/>
</linearGradient>
<linearGradient id="paint4_linear" x1="9.46091" y1="224.286" x2="187.216" y2="243.136" gradientUnits="userSpaceOnUse">
<stop stop-color="#74DEFF"/>
<stop offset="0.526042" stop-color="#76FCBB"/>
<stop offset="1" stop-color="#9FFF53"/>
</linearGradient>
</defs>
</svg>
